<?xml version="1.0" encoding="utf-8"?>
<!-- Generator: Adobe Illustrator 16.0.4, SVG Export Plug-In . SVG Version: 6.00 Build 0)  -->
<!DOCTYPE svg PUBLIC "-//W3C//DTD SVG 1.1//EN" "http://www.w3.org/Graphics/SVG/1.1/DTD/svg11.dtd">
<svg version="1.1" id="Layer_1" xmlns="http://www.w3.org/2000/svg" xmlns:xlink="http://www.w3.org/1999/xlink" x="0px" y="0px"
	 width="360px" height="360px" viewBox="0 0 360 360" enable-background="new 0 0 360 360" xml:space="preserve">
<g>
	<circle fill="#22B573" cx="180" cy="180" r="151.795"/>
	<circle fill="#FFFFFF" cx="180" cy="180" r="142.051"/>
	<circle fill="#22B573" cx="180" cy="180" r="137.948"/>
	<polyline fill="#22B573" stroke="#FFFFFF" stroke-width="4" stroke-miterlimit="10" points="211,248 211,182 222,182 222,162 
		248,162 248,248 239,248 239,126 246.599,126 251.867,97.812 256.303,126 266,126 266,215 315,215 	"/>
	<polyline fill="#22B573" stroke="#FFFFFF" stroke-width="4" stroke-miterlimit="10" points="200,248 200,226 173,226 173,202 
		154,202 154,180 132,180 132,194 142,194 142,117 107,117 107,231 120,231 120,168 86,168 86,214 44,214 	"/>
</g>
</svg>
